<svg width="200" height="200" viewBox="0 0 200 200" fill="none" xmlns="http://www.w3.org/2000/svg">
<g clip-path="url(#clip0_32_44)">
<path d="M172.235 0H27.7652C12.4309 0 0 12.4309 0 27.7652V172.235C0 187.569 12.4309 200 27.7652 200H172.235C187.569 200 200 187.569 200 172.235V27.7652C200 12.4309 187.569 0 172.235 0Z" fill="#222222"/>
<path d="M138.687 77.0545C149.479 66.3358 157.665 52.3404 152.744 47.454C147.825 42.5676 133.733 50.6968 122.94 61.4156L116.833 67.4811C115.839 68.4681 114.505 69.0435 113.101 69.0912L50.2868 72.2282C47.1011 72.358 44.6143 77.1642 46.8688 79.4033C47.3196 79.851 47.8802 80.174 48.4953 80.3402L84.2888 88.1854C88.3985 89.2966 89.7651 94.4033 86.7533 97.3944L72.4226 113.793C71.5509 114.659 70.4135 115.211 69.1902 115.364L49.9911 119.088C49.21 119.185 48.4838 119.538 47.9272 120.091C46.0905 121.915 46.7908 125.017 49.2359 125.888L64.219 132.63C65.4445 133.181 66.4265 134.156 66.9818 135.374L73.7704 150.255C74.6471 152.682 77.7707 153.377 79.6074 151.554C80.1641 151.001 80.5193 150.279 80.6171 149.504L84.367 130.436C84.5202 129.222 85.0766 128.092 85.9484 127.226L102.46 112.994C105.472 110.002 110.614 111.36 111.733 115.441L119.632 150.99C119.799 151.601 120.125 152.157 120.575 152.605C122.83 154.844 127.669 152.375 127.8 149.211L130.959 86.8267C131.007 85.4317 131.586 84.107 132.58 83.1201L138.687 77.0545Z" fill="#F9F9F9" stroke="#F9F9F9"/>
</g>
<defs>
<clipPath id="clip0_32_44">
<rect width="200" height="200" fill="white"/>
</clipPath>
</defs>
</svg>
